<svg id="svg" version="1.1" xmlns="http://www.w3.org/2000/svg" xmlns:xlink="http://www.w3.org/1999/xlink" width="400" height="400" viewBox="0, 0, 400,400"><g id="svgg"><path id="path0" d="M156.589 105.168 C 156.589 106.489,155.294 106.783,147.467 107.235 C 142.838 107.503,141.128 113.875,144.942 116.643 C 145.839 117.294,145.348 117.792,143.798 117.806 C 142.306 117.819,141.085 118.876,141.085 120.155 C 141.085 121.434,140.346 122.481,139.443 122.481 C 138.540 122.481,138.303 123.353,138.917 124.419 C 139.530 125.484,139.461 125.839,138.763 125.207 C 138.066 124.575,136.558 124.835,135.414 125.785 C 134.270 126.734,133.333 127.077,133.333 126.546 C 133.333 126.016,131.938 126.977,130.233 128.682 C 128.527 130.388,127.132 132.456,127.132 133.279 C 127.132 135.491,121.143 138.299,119.108 137.041 C 118.031 136.375,117.778 136.648,118.457 137.745 C 119.112 138.806,118.578 139.535,117.146 139.535 C 115.816 139.535,114.729 140.496,114.729 141.671 C 114.729 144.694,110.114 148.453,109.979 145.539 C 109.925 144.368,109.250 144.981,108.478 146.901 C 107.707 148.820,104.611 151.566,101.600 153.002 C 98.588 154.438,96.124 156.530,96.124 157.651 C 96.124 158.773,95.359 159.690,94.424 159.690 C 92.457 159.690,69.767 182.296,69.767 184.256 C 69.767 184.977,68.372 186.829,66.667 188.372 C 64.961 189.915,63.566 191.801,63.566 192.563 C 63.566 193.324,61.647 195.714,59.302 197.874 C 56.957 200.034,56.085 201.248,57.364 200.573 C 58.643 199.897,57.178 201.934,54.107 205.099 C 51.036 208.263,47.757 210.853,46.820 210.853 C 45.882 210.853,44.557 211.850,43.875 213.068 C 43.194 214.287,42.287 215.191,41.860 215.077 C 41.434 214.963,39.690 216.065,37.984 217.525 C 36.279 218.986,34.535 220.055,34.109 219.901 C 30.029 218.431,19.000 235.043,18.893 242.818 C 18.811 248.724,24.194 260.791,26.563 260.012 C 27.102 259.835,30.590 261.412,34.314 263.516 C 38.038 265.620,41.783 267.463,42.636 267.612 C 43.488 267.760,48.503 268.785,53.780 269.890 C 63.136 271.849,79.230 270.656,87.273 267.408 C 88.800 266.791,89.938 266.895,89.802 267.639 C 89.222 270.816,90.035 272.982,91.473 272.093 C 92.326 271.566,93.023 271.915,93.023 272.868 C 93.023 273.822,93.673 274.200,94.467 273.710 C 95.260 273.219,96.323 273.486,96.828 274.304 C 97.980 276.167,106.283 277.386,127.385 278.790 C 136.478 279.395,143.588 279.357,143.185 278.705 C 142.782 278.053,143.582 277.519,144.961 277.519 C 146.341 277.519,147.039 278.217,146.512 279.070 C 145.985 279.922,146.600 280.620,147.879 280.620 C 149.158 280.620,150.636 279.922,151.163 279.070 C 151.690 278.217,153.167 277.519,154.447 277.519 C 155.726 277.519,156.447 278.043,156.050 278.682 C 155.067 280.265,168.724 279.467,193.798 276.477 C 205.310 275.104,216.647 274.091,218.992 274.224 C 221.337 274.358,223.256 273.934,223.256 273.280 C 223.256 272.627,225.174 272.049,227.519 271.994 C 233.789 271.849,250.516 268.335,261.857 264.781 C 267.312 263.072,273.792 261.355,276.258 260.966 C 278.723 260.578,283.678 258.926,287.269 257.296 C 290.860 255.666,294.926 254.316,296.305 254.298 C 298.933 254.262,310.835 249.896,322.209 244.795 C 328.236 242.092,328.886 241.283,328.641 236.786 C 328.214 228.951,328.512 227.907,331.177 227.907 C 333.557 227.907,336.078 226.013,345.885 216.855 C 348.285 214.614,350.515 213.047,350.840 213.372 C 351.165 213.697,354.015 211.170,357.173 207.757 C 360.332 204.343,362.477 201.550,361.940 201.550 C 361.404 201.550,362.771 199.404,364.978 196.780 C 367.186 194.157,368.992 191.338,368.992 190.516 C 368.992 189.694,370.470 187.023,372.276 184.581 C 374.081 182.138,375.087 179.376,374.510 178.442 C 373.933 177.508,374.083 176.744,374.844 176.744 C 375.605 176.744,376.284 175.872,376.354 174.806 C 376.424 173.740,377.318 169.031,378.342 164.341 C 381.389 150.381,377.278 143.050,362.315 135.755 C 355.951 132.652,350.140 130.285,349.403 130.494 C 348.665 130.703,344.415 129.632,339.957 128.114 C 335.500 126.597,331.139 125.796,330.267 126.335 C 329.396 126.874,328.682 126.592,328.682 125.708 C 328.682 124.825,326.066 124.110,322.868 124.119 C 312.366 124.150,301.626 122.893,297.157 121.110 C 294.740 120.146,292.124 119.753,291.343 120.235 C 290.562 120.718,289.922 120.285,289.922 119.273 C 289.922 117.995,288.030 117.736,283.721 118.425 C 280.310 118.970,277.519 118.880,277.519 118.225 C 277.519 117.570,270.717 116.847,262.403 116.618 C 242.676 116.076,233.340 115.283,224.820 113.425 C 220.990 112.590,217.327 112.235,216.680 112.634 C 216.033 113.034,215.504 112.728,215.504 111.954 C 215.504 110.730,196.551 109.574,173.338 109.381 C 167.728 109.335,165.892 108.696,165.343 106.599 C 164.627 103.859,156.589 102.545,156.589 105.168 " stroke="none" fill="#000000" fill-rule="evenodd"></path></g></svg>