<svg id="svg" version="1.1" xmlns="http://www.w3.org/2000/svg" xmlns:xlink="http://www.w3.org/1999/xlink" width="400" height="401.6260162601626" viewBox="0, 0, 400,401.6260162601626"><g id="svgg"><path id="path0" d="M370.732 19.604 C 368.496 21.403,364.106 24.334,360.976 26.117 C 353.660 30.286,349.661 32.861,332.255 44.612 C 324.237 50.026,315.994 54.357,313.486 54.475 C 308.799 54.694,299.187 62.035,299.187 65.396 C 299.187 66.471,294.967 71.405,289.810 76.359 C 272.588 92.902,242.276 131.263,242.276 136.516 C 242.276 137.229,241.179 138.724,239.837 139.837 C 238.496 140.951,237.398 143.165,237.398 144.758 C 237.398 147.533,237.074 147.532,229.675 144.735 C 203.469 134.827,165.056 132.433,151.208 139.843 C 149.543 140.734,146.712 141.463,144.915 141.463 C 129.454 141.463,95.935 176.611,95.935 192.824 C 95.935 194.741,94.585 198.054,92.934 200.187 C 43.642 263.892,47.954 336.589,103.312 375.150 C 109.649 379.564,128.916 379.646,129.760 375.262 C 130.065 373.678,128.777 372.175,126.515 371.474 C 121.094 369.795,102.929 350.315,100.817 343.915 C 99.829 340.920,96.340 336.426,93.064 333.927 C 82.467 325.844,78.049 319.775,78.049 313.301 C 78.049 311.202,77.500 308.936,76.829 308.266 C 75.435 306.871,74.563 296.047,74.331 277.236 C 74.182 265.210,74.692 263.091,81.078 249.178 C 84.877 240.901,87.467 233.290,86.834 232.265 C 86.200 231.240,86.732 229.597,88.016 228.615 C 89.300 227.633,91.518 224.374,92.946 221.373 L 95.542 215.916 100.758 223.498 C 130.976 267.418,248.778 264.272,272.124 218.920 L 274.522 214.264 277.098 219.246 C 278.515 221.987,279.675 225.639,279.675 227.362 C 279.675 229.086,280.757 231.394,282.080 232.492 C 289.195 238.397,297.452 277.381,296.380 300.000 C 296.230 303.151,289.494 320.308,287.761 321.951 C 287.289 322.398,285.656 326.789,284.131 331.707 C 281.353 340.672,269.239 360.976,266.669 360.976 C 265.915 360.976,264.817 363.170,264.228 365.852 C 263.639 368.533,261.599 371.819,259.694 373.154 C 257.308 374.824,256.754 376.103,257.912 377.261 C 259.899 379.249,276.134 372.360,280.018 367.880 C 319.940 321.842,320.283 258.210,280.894 205.585 C 276.646 199.909,273.171 193.767,273.171 191.934 C 273.171 187.413,266.444 173.785,260.514 166.293 L 255.661 160.163 260.067 152.474 C 262.490 148.246,265.881 143.230,267.602 141.328 C 269.323 139.426,270.570 137.398,270.372 136.821 C 269.753 135.017,284.078 116.473,291.392 109.610 C 295.232 106.007,299.472 101.594,300.813 99.804 C 304.633 94.706,315.127 87.415,316.989 88.566 C 319.006 89.813,331.707 79.971,331.707 77.161 C 331.707 76.078,335.549 72.316,340.244 68.800 C 344.939 65.285,354.821 57.879,362.203 52.342 C 369.586 46.806,376.354 42.276,377.244 42.276 C 378.134 42.276,378.862 41.545,378.862 40.650 C 378.862 39.756,379.646 39.024,380.604 39.024 C 386.267 39.024,389.709 22.879,385.041 18.211 C 382.098 15.268,375.297 15.930,370.732 19.604 M383.740 28.766 C 383.740 33.113,380.830 30.711,380.104 25.765 C 379.424 21.133,379.564 20.927,381.546 23.637 C 382.752 25.287,383.740 27.596,383.740 28.766 M317.726 77.456 C 311.169 80.858,309.380 80.100,313.855 75.817 C 316.735 73.060,318.474 72.427,319.944 73.598 C 321.518 74.851,320.995 75.760,317.726 77.456 M197.784 157.093 C 203.922 157.659,210.455 158.695,212.303 159.395 C 218.097 161.590,227.801 168.816,226.245 169.777 C 225.428 170.282,224.296 173.164,223.730 176.182 C 221.576 187.660,207.374 192.371,201.555 183.537 C 201.069 182.800,199.240 181.973,197.490 181.701 C 195.741 181.429,193.428 180.657,192.351 179.985 C 191.274 179.312,188.610 179.210,186.431 179.757 C 184.251 180.304,181.980 179.961,181.382 178.994 C 180.785 178.027,177.630 177.236,174.372 177.236 C 169.917 177.236,167.124 175.953,163.110 172.062 C 157.983 167.094,153.570 166.540,157.577 171.369 C 159.135 173.246,158.939 173.867,156.590 174.500 C 142.436 178.312,138.211 179.718,138.211 180.617 C 138.211 181.192,136.406 181.318,134.199 180.896 C 129.165 179.934,127.021 174.176,130.695 171.489 C 132.146 170.428,133.333 168.872,133.333 168.031 C 133.333 163.887,161.404 154.470,163.525 157.902 C 163.969 158.620,165.333 158.823,166.556 158.354 C 169.812 157.105,184.379 154.963,185.589 155.556 C 186.159 155.835,191.647 156.526,197.784 157.093 M234.795 179.517 C 234.335 180.715,235.183 182.919,236.679 184.415 C 239.222 186.957,239.202 187.353,236.370 190.482 C 232.165 195.128,224.814 198.749,223.594 196.775 C 222.139 194.421,227.368 180.234,230.547 177.909 C 233.764 175.557,235.991 176.400,234.795 179.517 M259.131 199.164 C 258.948 206.630,258.098 209.013,253.927 213.764 L 248.942 219.441 249.901 211.347 C 250.590 205.527,250.301 203.252,248.870 203.252 C 247.776 203.252,249.199 200.325,252.033 196.748 C 258.733 188.287,259.392 188.511,259.131 199.164 M226.826 225.407 C 223.420 227.897,219.512 228.368,219.512 226.287 C 219.512 223.987,221.101 223.171,225.579 223.171 C 229.630 223.171,229.704 223.303,226.826 225.407 " stroke="none" fill="#000000" fill-rule="evenodd"></path></g></svg>